# Blender 3.4.1
# www.blender.org
mtllib light_tree.mtl
o Cube
v 0.220310 0.177706 -0.024434
v 0.220310 -0.177706 -0.024434
v 0.124553 0.103862 1.977758
v 0.124553 -0.103862 1.977758
v -0.220310 0.177706 -0.024434
v -0.220310 -0.177706 -0.024434
v -0.124553 0.103862 1.977758
v -0.124553 -0.103862 1.977758
vn -0.0000 0.9993 0.0369
vn -0.0000 -0.0000 1.0000
vn -0.9989 -0.0000 0.0478
vn -0.0000 -0.9993 0.0369
vn 0.9989 -0.0000 0.0478
vn -0.0000 -0.0000 -1.0000
vt 0.627549 0.500000
vt 0.377592 0.500000
vt 0.627549 0.749957
vt 0.377592 0.749957
vt 0.877506 0.500000
vt 0.627549 0.250043
vt 0.127636 0.500000
vt 0.377592 0.250043
vt 0.877506 0.749957
vt 0.627549 0.999913
vt 0.627549 0.000087
vt 0.377592 0.999913
vt 0.127636 0.749957
vt 0.377592 0.000087
s 0
usemtl default02
f 1/1/1 7/9/1 3/3/1
f 4/4/2 7/10/2 8/12/2
f 8/14/3 5/6/3 6/8/3
f 6/7/4 4/4/4 8/13/4
f 2/2/5 3/3/5 4/4/5
f 6/8/6 1/1/6 2/2/6
f 1/1/1 5/5/1 7/9/1
f 4/4/2 3/3/2 7/10/2
f 8/14/3 7/11/3 5/6/3
f 6/7/4 2/2/4 4/4/4
f 2/2/5 1/1/5 3/3/5
f 6/8/6 5/6/6 1/1/6
